HIERARCHY
ROOT Hips
{
	OFFSET 0.000000 35.082581 0.000000
	CHANNELS 6 Xposition Yposition Zposition Xrotation Yrotation Zrotation 
	JOINT Spine
	{
		OFFSET 0.000000 6.876099 0.125700
		CHANNELS 3 Xrotation Yrotation Zrotation
		JOINT Spine1
		{
			OFFSET 0.000000 5.730043 0.104720
			CHANNELS 3 Xrotation Yrotation Zrotation
			JOINT Spine1_split
			{
				OFFSET 0.000000 5.730043 0.104720
				CHANNELS 3 Xrotation Yrotation Zrotation
				JOINT Spine2
				{
					OFFSET 0.000000 5.730043 0.104720
					CHANNELS 3 Xrotation Yrotation Zrotation
					JOINT Neck
					{
						OFFSET 0.000000 10.314075 0.188496
						CHANNELS 3 Xrotation Yrotation Zrotation
						JOINT Head
						{
							OFFSET 0.000000 7.643700 -2.377400
							CHANNELS 3 Xrotation Yrotation Zrotation
							JOINT HeadTop_End
							{
								OFFSET 0.000000 43.788605 -13.619600
								CHANNELS 3 Xrotation Yrotation Zrotation
								End Site
								{
									OFFSET 0.000000 0.000000 0.000000
								}
							}
						}
					}
					JOINT LeftShoulder
					{
						OFFSET 2.196100 4.412489 0.087492
						CHANNELS 3 Xrotation Yrotation Zrotation
						JOINT LeftShoulder_split
						{
							OFFSET 2.196100 4.412489 0.087492
							CHANNELS 3 Xrotation Yrotation Zrotation
							JOINT LeftArm
							{
								OFFSET 8.771219 -2.981674 -0.026999
								CHANNELS 3 Xrotation Yrotation Zrotation
								JOINT LeftForeArm
								{
									OFFSET 8.512804 0.000000 -0.000000
									CHANNELS 3 Xrotation Yrotation Zrotation
									JOINT LeftHand
									{
										OFFSET 18.484802 0.000000 -0.000000
										CHANNELS 3 Xrotation Yrotation Zrotation
										JOINT LeftHandThumb1
										{
											OFFSET 2.499420 -1.158070 2.653252
											CHANNELS 3 Xrotation Yrotation Zrotation
											JOINT LeftHandThumb2
											{
												OFFSET 2.370079 -1.368366 1.368366
												CHANNELS 3 Xrotation Yrotation Zrotation
												JOINT LeftHandThumb3
												{
													OFFSET 2.676727 -1.545410 1.545409
													CHANNELS 3 Xrotation Yrotation Zrotation
													JOINT LeftHandThumb4
													{
														OFFSET 1.692226 -0.977005 0.977007
														CHANNELS 3 Xrotation Yrotation Zrotation
														End Site
														{
															OFFSET 0.000000 0.000000 0.000000
														}
													}
												}
											}
										}
										JOINT LeftHandIndex1
										{
											OFFSET 7.924831 -0.457527 2.345128
											CHANNELS 3 Xrotation Yrotation Zrotation
											JOINT LeftHandIndex2
											{
												OFFSET 3.643303 0.000000 0.000000
												CHANNELS 3 Xrotation Yrotation Zrotation
												JOINT LeftHandIndex3
												{
													OFFSET 3.810799 0.000000 0.000000
													CHANNELS 3 Xrotation Yrotation Zrotation
													JOINT LeftHandIndex4
													{
														OFFSET 2.403702 0.000000 0.000000
														CHANNELS 3 Xrotation Yrotation Zrotation
														End Site
														{
															OFFSET 0.000000 0.000000 0.000000
														}
													}
												}
											}
										}
										JOINT LeftHandMiddle1
										{
											OFFSET 8.563995 0.000000 -0.000000
											CHANNELS 3 Xrotation Yrotation Zrotation
											JOINT LeftHandMiddle2
											{
												OFFSET 3.861618 0.000000 0.000000
												CHANNELS 3 Xrotation Yrotation Zrotation
												JOINT LeftHandMiddle3
												{
													OFFSET 3.701603 0.000000 0.000000
													CHANNELS 3 Xrotation Yrotation Zrotation
													JOINT LeftHandMiddle4
													{
														OFFSET 2.322544 0.000000 0.000000
														CHANNELS 3 Xrotation Yrotation Zrotation
														End Site
														{
															OFFSET 0.000000 0.000000 0.000000
														}
													}
												}
											}
										}
										JOINT LeftHandRing1
										{
											OFFSET 8.426460 -0.424637 -3.286992
											CHANNELS 3 Xrotation Yrotation Zrotation
											JOINT LeftHandRing2
											{
												OFFSET 3.126408 0.000000 0.000000
												CHANNELS 3 Xrotation Yrotation Zrotation
												JOINT LeftHandRing3
												{
													OFFSET 3.085026 0.000000 0.000000
													CHANNELS 3 Xrotation Yrotation Zrotation
													JOINT LeftHandRing4
													{
														OFFSET 1.644005 0.000000 0.000000
														CHANNELS 3 Xrotation Yrotation Zrotation
														End Site
														{
															OFFSET 0.000000 0.000000 0.000000
														}
													}
												}
											}
										}
									}
								}
							}
						}
					}
					JOINT RightShoulder
					{
						OFFSET -2.196100 4.412496 0.070690
						CHANNELS 3 Xrotation Yrotation Zrotation
						JOINT RightShoulder_split
						{
							OFFSET -2.196100 4.412496 0.070690
							CHANNELS 3 Xrotation Yrotation Zrotation
							JOINT RightArm
							{
								OFFSET -8.771282 -2.981682 -0.094208
								CHANNELS 3 Xrotation Yrotation Zrotation
								JOINT RightForeArm
								{
									OFFSET -8.494598 0.000000 0.000000
									CHANNELS 3 Xrotation Yrotation Zrotation
									JOINT RightHand
									{
										OFFSET -18.483803 0.000000 0.000001
										CHANNELS 3 Xrotation Yrotation Zrotation
										JOINT RightHandThumb1
										{
											OFFSET -2.527351 -1.008072 2.575253
											CHANNELS 3 Xrotation Yrotation Zrotation
											JOINT RightHandThumb2
											{
												OFFSET -2.321518 -1.340328 1.340329
												CHANNELS 3 Xrotation Yrotation Zrotation
												JOINT RightHandThumb3
												{
													OFFSET -2.657753 -1.534454 1.534455
													CHANNELS 3 Xrotation Yrotation Zrotation
													JOINT RightHandThumb4
													{
														OFFSET -1.807510 -1.043568 1.043567
														CHANNELS 3 Xrotation Yrotation Zrotation
														End Site
														{
															OFFSET 0.000000 0.000000 0.000000
														}
													}
												}
											}
										}
										JOINT RightHandIndex1
										{
											OFFSET -8.811420 0.015533 2.887987
											CHANNELS 3 Xrotation Yrotation Zrotation
											JOINT RightHandIndex2
											{
												OFFSET -3.537502 0.000000 0.000000
												CHANNELS 3 Xrotation Yrotation Zrotation
												JOINT RightHandIndex3
												{
													OFFSET -3.356201 0.000000 0.000000
													CHANNELS 3 Xrotation Yrotation Zrotation
													JOINT RightHandIndex4
													{
														OFFSET -1.933098 0.000000 0.000000
														CHANNELS 3 Xrotation Yrotation Zrotation
														End Site
														{
															OFFSET 0.000000 0.000000 0.000000
														}
													}
												}
											}
										}
										JOINT RightHandMiddle1
										{
											OFFSET -8.178135 0.000000 0.000000
											CHANNELS 3 Xrotation Yrotation Zrotation
											JOINT RightHandMiddle2
											{
												OFFSET -3.901302 0.000000 0.000000
												CHANNELS 3 Xrotation Yrotation Zrotation
												JOINT RightHandMiddle3
												{
													OFFSET -3.909599 0.000000 0.000000
													CHANNELS 3 Xrotation Yrotation Zrotation
													JOINT RightHandMiddle4
													{
														OFFSET -2.376003 0.000000 0.000000
														CHANNELS 3 Xrotation Yrotation Zrotation
														End Site
														{
															OFFSET 0.000000 0.000000 0.000000
														}
													}
												}
											}
										}
										JOINT RightHandRing1
										{
											OFFSET -7.559013 0.014137 -2.865403
											CHANNELS 3 Xrotation Yrotation Zrotation
											JOINT RightHandRing2
											{
												OFFSET -3.449306 0.000000 0.000000
												CHANNELS 3 Xrotation Yrotation Zrotation
												JOINT RightHandRing3
												{
													OFFSET -3.362106 0.000000 0.000000
													CHANNELS 3 Xrotation Yrotation Zrotation
													JOINT RightHandRing4
													{
														OFFSET -2.076401 0.000000 0.000000
														CHANNELS 3 Xrotation Yrotation Zrotation
														End Site
														{
															OFFSET 0.000000 0.000000 0.000000
														}
													}
												}
											}
										}
									}
								}
							}
						}
					}
				}
			}
		}
	}
	JOINT LeftUpLeg
	{
		OFFSET 10.205400 -3.823500 0.155100
		CHANNELS 3 Xrotation Yrotation Zrotation
		JOINT LeftLeg
		{
			OFFSET 0.708757 -12.982077 0.567790
			CHANNELS 3 Xrotation Yrotation Zrotation
			JOINT LeftFoot
			{
				OFFSET -0.708756 -10.717838 -2.184338
				CHANNELS 3 Xrotation Yrotation Zrotation
				JOINT LeftToeBase
				{
					OFFSET 0.108149 -7.191104 7.560241
					CHANNELS 3 Xrotation Yrotation Zrotation
					JOINT LeftToe_End
					{
						OFFSET 0.070230 0.081724 4.490308
						CHANNELS 3 Xrotation Yrotation Zrotation
						End Site
						{
							OFFSET 0.000000 0.000000 0.000000
						}
					}
				}
			}
		}
	}
	JOINT RightUpLeg
	{
		OFFSET -10.205400 -3.823500 0.005500
		CHANNELS 3 Xrotation Yrotation Zrotation
		JOINT RightLeg
		{
			OFFSET -0.708756 -12.982134 0.610632
			CHANNELS 3 Xrotation Yrotation Zrotation
			JOINT RightFoot
			{
				OFFSET 0.708754 -10.717769 -1.945823
				CHANNELS 3 Xrotation Yrotation Zrotation
				JOINT RightToeBase
				{
					OFFSET -0.108140 -7.191069 7.372968
					CHANNELS 3 Xrotation Yrotation Zrotation
					JOINT RightToe_End
					{
						OFFSET -0.070227 0.081735 4.479403
						CHANNELS 3 Xrotation Yrotation Zrotation
						End Site
						{
							OFFSET 0.000000 0.000000 0.000000
						}
					}
				}
			}
		}
	}
}
MOTION
Frames: 4
Frame Time: 0.016667
-5.877751 5.969490 -27.522440 -87.156725 26.870782 4.562401 53.908436 11.472875 -1.976467 20.535749 3.211058 0.186204 0.000000 0.000000 0.000000 20.612223 2.862299 0.333965 6.354674 0.273871 -2.216753 32.669218 -1.249307 -2.725199 0.000002 0.000000 -0.000000 0.690089 -7.698578 -13.129572 0.000000 0.000000 0.000000 -23.121922 -24.042650 -24.824230 0.000016 -63.058799 0.000024 -1.509115 -20.163902 -5.466372 -8.685564 -15.954369 1.209990 21.854479 36.310819 -10.832598 0.138408 22.599817 19.532538 -0.000005 -0.000000 -0.000004 0.653214 -15.996943 0.940946 1.493556 3.908525 -41.813967 0.838322 3.021701 -31.005364 -0.000001 -0.000001 0.000000 0.176381 0.770535 4.717960 1.760981 4.187628 -45.600925 0.967734 3.226958 -33.379312 -0.000000 0.000001 -0.000000 -0.158554 11.618692 1.853056 2.336939 4.681171 -53.039492 0.661792 2.706785 -27.474262 0.000000 -0.000001 -0.000001 0.136780 13.961801 14.788444 0.000000 0.000000 0.000000 -26.720448 -13.516590 33.282112 0.000009 41.763058 -0.000014 -11.101727 -25.897385 44.633920 -8.583341 16.136751 -7.178702 7.869607 -18.273630 9.753291 0.110979 -5.682744 -15.719767 -0.000000 0.000001 0.000002 1.587531 7.438675 -9.026644 0.644890 -2.366453 30.483950 0.278294 -1.587318 19.887293 0.000001 -0.000000 -0.000001 2.008396 2.097546 -33.232815 0.823283 -2.645913 34.561676 0.347138 -1.766048 22.240428 0.000005 -0.000000 -0.000001 -0.161315 -5.730954 -3.494310 1.189569 -3.110736 41.846052 0.187750 -1.310302 16.306797 -0.000002 0.000001 0.000002 -71.124208 9.931495 29.568664 75.238755 17.440393 -0.634328 15.609491 8.327603 -1.206949 0.139568 0.000004 0.000014 0.000004 -0.000000 0.000000 -35.183930 7.736882 -49.135391 114.224833 24.785150 10.345494 6.507439 -3.357017 31.370806 0.000007 0.000001 0.000004 0.000003 0.000000 -0.000000 
-6.029420 5.849216 -27.949289 -91.570926 26.498996 5.074689 53.775811 12.349234 -1.101578 20.987674 3.430235 0.332318 0.000000 0.000000 0.000000 21.083093 3.010463 0.480108 6.011285 0.280390 -2.502179 29.147539 -1.772884 -3.475371 0.000001 -0.000001 0.000001 0.654637 -7.640305 -13.060483 0.000000 0.000000 0.000000 -19.361669 -24.125225 -21.499045 0.000001 -64.350805 -0.000016 -16.742479 -19.468580 -13.423392 -8.647226 -15.819241 1.255079 21.674183 36.224940 -10.484467 0.031429 22.546842 19.494907 -0.000005 0.000001 -0.000002 0.555394 -15.865696 0.644514 1.453115 3.862947 -41.217077 0.820755 2.992329 -30.670490 -0.000002 0.000001 -0.000000 0.167786 0.758913 4.236390 1.725445 4.152588 -45.111975 0.956610 3.210062 -33.181469 -0.000001 -0.000000 -0.000001 -0.074942 11.507224 1.341951 2.289196 4.644982 -52.452151 0.662743 2.708591 -27.493975 -0.000000 0.000001 0.000001 0.281193 14.030643 13.544993 0.000000 0.000000 0.000000 -21.025814 -14.046615 33.984368 -0.000004 42.419709 0.000006 -13.856788 -29.911232 39.389551 -8.524680 16.035831 -7.103592 7.804557 -18.123448 9.475632 0.007332 -5.624727 -15.681814 0.000002 0.000003 -0.000002 1.572318 7.449070 -8.920447 0.613292 -2.311970 29.709830 0.264088 -1.547491 19.367707 -0.000002 -0.000001 -0.000002 1.979184 2.094975 -32.626936 0.792732 -2.601098 33.894435 0.335587 -1.737467 21.861730 -0.000001 0.000001 -0.000000 -0.150387 -5.701279 -3.349992 1.148414 -3.064245 41.082095 0.183972 -1.297337 16.140941 -0.000001 0.000001 0.000001 -68.757015 7.565170 29.644851 73.369530 16.865188 0.804683 19.454607 7.880609 1.131410 0.216194 0.000007 0.000007 0.000002 0.000001 -0.000000 -29.491459 8.179690 -47.133636 112.606160 24.697445 8.213572 4.794460 -4.686781 32.220618 0.000004 0.000009 0.000012 -0.000001 0.000001 -0.000002 
-6.083645 5.761539 -28.353731 -96.211786 26.077394 5.770484 53.617702 12.887035 -0.161842 21.302516 3.531561 0.486730 0.000000 0.000000 0.000000 21.413458 3.045616 0.639494 5.772043 0.276190 -2.724579 26.591374 -2.420396 -3.858298 -0.000001 -0.000000 0.000002 0.618666 -7.705196 -13.035370 0.000000 0.000000 0.000000 -16.051296 -24.091790 -18.542283 -0.000022 -64.438935 -0.000022 -29.438303 -14.660892 -23.712740 -8.606951 -15.678289 1.302586 21.493711 36.137780 -10.137146 -0.075370 22.493138 19.456794 -0.000002 -0.000003 -0.000001 0.451690 -15.724111 0.326256 1.413719 3.817610 -40.628957 0.803782 2.963536 -30.343604 0.000001 0.000001 0.000001 0.157832 0.750885 3.729255 1.690765 4.117855 -44.631106 0.946007 3.193791 -32.991241 0.000001 -0.000000 0.000001 0.010142 11.394062 0.806338 2.242461 4.608809 -51.872954 0.664016 2.711045 -27.521014 -0.000000 0.000000 -0.000000 0.368030 14.232623 12.568261 0.000000 0.000000 0.000000 -15.163286 -12.817771 34.004459 0.000012 41.556920 -0.000017 -18.970108 -29.594462 30.817643 -8.466265 15.929009 -7.031877 7.746160 -17.979942 9.203204 -0.094119 -5.572740 -15.646010 0.000000 -0.000002 0.000003 1.531161 7.435919 -8.676675 0.587239 -2.265755 29.057626 0.253278 -1.516405 18.963429 0.000001 0.000002 0.000001 1.934916 2.080049 -31.865394 0.767996 -2.563903 33.345117 0.327567 -1.717395 21.596174 0.000001 0.000000 -0.000000 -0.131344 -5.679938 -3.068215 1.114188 -3.024567 40.437356 0.182709 -1.292946 16.084875 0.000001 0.000001 0.000002 -65.353538 5.753707 30.079801 71.213595 15.826522 2.070016 23.011146 6.879497 2.066845 0.305980 0.000004 0.000008 -0.000001 -0.000001 0.000001 -22.691828 8.841878 -46.124274 111.417857 24.923084 6.095771 2.274601 -6.327620 33.669691 0.000003 0.000006 0.000002 -0.000001 -0.000000 -0.000001 
-6.075536 5.713409 -28.731052 -101.022220 25.733387 6.570576 53.259148 13.009559 0.842750 21.392883 3.485088 0.638495 0.000000 0.000000 0.000000 21.512837 2.946438 0.804823 5.701514 0.269790 -2.859058 25.666237 -3.057665 -3.930412 0.000002 -0.000002 -0.000001 0.583235 -7.873912 -13.009939 0.000000 0.000000 0.000000 -13.224163 -24.020112 -16.352822 -0.000019 -63.453721 -0.000026 -35.332200 -4.373207 -31.544641 -8.564886 -15.531811 1.352386 21.313240 36.049469 -9.790856 -0.181906 22.438722 19.418168 -0.000002 -0.000002 -0.000004 0.342701 -15.572432 -0.012867 1.375364 3.772559 -40.049637 0.787360 2.935372 -30.024576 0.000000 0.000000 -0.000001 0.146529 0.746362 3.197625 1.656963 4.083414 -44.158293 0.935842 3.178103 -32.808523 -0.000000 -0.000000 -0.000000 0.096290 11.279238 0.247313 2.196738 4.572687 -51.301920 0.665663 2.714117 -27.555150 -0.000000 -0.000000 0.000000 0.413017 14.399161 11.899830 0.000000 0.000000 0.000000 -8.989460 -9.774883 33.560179 0.000003 39.122244 -0.000004 -23.648635 -24.014337 23.764219 -8.408930 15.818484 -6.963141 7.693877 -17.841832 8.937318 -0.193309 -5.525021 -15.612245 0.000001 0.000000 0.000005 1.460725 7.396305 -8.275154 0.567197 -2.229312 28.546359 0.246175 -1.495585 18.693313 -0.000003 0.000002 -0.000000 1.874008 2.050741 -30.926851 0.749639 -2.535817 32.932635 0.323584 -1.707290 21.462657 0.000000 -0.000001 0.000001 -0.103148 -5.668199 -2.628675 1.087579 -2.993134 39.930693 0.184345 -1.298632 16.157526 0.000001 0.000000 -0.000000 -61.293168 4.367410 30.977582 69.304522 14.655424 3.217461 25.423004 5.384580 1.550814 0.390750 0.000010 -0.000016 0.000002 -0.000001 -0.000001 -17.081798 10.205077 -45.041843 111.319127 24.060550 3.819382 0.609425 -7.283562 33.802931 0.000004 0.000012 -0.000006 -0.000002 0.000000 0.000000 
